# xmcd CD database file
#
# Track frame offsets:
#	150
#	12163
#	25242
#	37724
#	50002
#	60752
#	72850
#	85772
#	97771
#	110068
#	122259
#	138515
#	149998
#	160513
#	174935
#	187484
#	199699
#	220451
#	230822
#	243478
#	255641
#	266306
#	276766
#	289663
#	301189
#	313539
#
# Disc length: 4413 seconds
#
# Revision: 4
# Processed by: cddbd v1.5.2PL0 Copyright (c) Steve Scherf et al.
# Submitted via: CDex 1.51
#
DISCID=6e113b1a
DTITLE=Various Artist - 60's Soul Mix
DYEAR=2003
DGENRE=Soul
TTITLE0=Stevie Wonder - For Once In My Life
TTITLE1=Marlena Shaw - California Soul
TTITLE2=Contours - Do You Love Me
TTITLE3=Marvin Gaye - Can I Get A Witness
TTITLE4=Temptations - Ain't Too Proud To Beg
TTITLE5=Isley Bros. - This Old Heart Of Mine
TTITLE6=Jr. Walker and the Allstars - How Sweet It Is (to be loved by you)
TTITLE7=Fontella Bass - Rescue Me
TTITLE8=Spencer Davis Group - Gimme Some Lovin'
TTITLE9=James Brown - Think
TTITLE10=Ramsey Lewis - Wade In The Water
TTITLE11=Martha Reeves and the Vandellas - Dancing In The Street
TTITLE12=Little Eva - The Locomotion
TTITLE13=Edwin Starr - 25 Miles
TTITLE14=Jackson 5 - I Want You Back
TTITLE15=Mary Wells - My Guy
TTITLE16=Staple Singers - Respect Yourself
TTITLE17=Sly and the Family Stone - Everyday People
TTITLE18=Marvin Gaye and Kim Weston - It Takes Two
TTITLE19=Miracles - Shop Around
TTITLE20=Marvelettes - Too Many Fish In The Sea
TTITLE21=R. Dean Taylor - There's A Ghost In My House
TTITLE22=Foundations - Build Me Up Buttercup
TTITLE23=Temptations - The Way You Do The Things You Do
TTITLE24=Marvin Gaye - Too Busy Thinking About My Baby
TTITLE25=Al Green - Light My Fire
EXTD=YEAR: 2003
EXTT0=
EXTT1=
EXTT2=
EXTT3=
EXTT4=
EXTT5=
EXTT6=
EXTT7=
EXTT8=
EXTT9=
EXTT10=
EXTT11=
EXTT12=
EXTT13=
EXTT14=
EXTT15=
EXTT16=
EXTT17=
EXTT18=
EXTT19=
EXTT20=
EXTT21=
EXTT22=
EXTT23=
EXTT24=
EXTT25=
PLAYORDER=
